<svg xmlns="http://www.w3.org/2000/svg" style="display: none">

  <!-- =====================
       SOCIAL ICONS
  ====================== -->

  <symbol id="icon-instagram" viewBox="0 0 24 24">
    <path d="M7.75 2h8.5C19.216 2 22 4.784 22 7.75v8.5C22 19.216 19.216 22 16.25 22h-8.5C4.784 22 2 19.216 2 16.25v-8.5C2 4.784 4.784 2 7.75 2zm0 1.5A4.25 4.25 0 003.5 7.75v8.5A4.25 4.25 0 007.75 20.5h8.5a4.25 4.25 0 004.25-4.25v-8.5A4.25 4.25 0 0016.25 3.5h-8.5z"/>
    <path d="M12 7a5 5 0 100 10 5 5 0 000-10zm0 1.5a3.5 3.5 0 110 7 3.5 3.5 0 010-7z"/>
    <path d="M17.25 6.25a1 1 0 110 2 1 1 0 010-2z"/>
  </symbol>

  <symbol id="icon-twitter" viewBox="0 0 24 24">
    <path d="M22.46 6c-.77.35-1.6.58-2.46.69a4.3 4.3 0 0 0 1.88-2.37a8.6 8.6 0 0 1-2.73 1.04a4.28 4.28 0 0 0-7.3 3.9a12.15 12.15 0 0 1-8.82-4.47a4.28 4.28 0 0 0 1.32 5.7a4.2 4.2 0 0 1-1.94-.54v.05a4.28 4.28 0 0 0 3.44 4.2a4.3 4.3 0 0 1-1.93.07a4.28 4.28 0 0 0 4 3a8.6 8.6 0 0 1-5.33 1.84A8.8 8.8 0 0 1 2 19.54a12.14 12.14 0 0 0 6.56 1.92c7.88 0 12.2-6.53 12.2-12.2c0-.18 0-.35-.01-.53A8.7 8.7 0 0 0 22.46 6z"/>
  </symbol>

  <symbol id="icon-facebook" viewBox="0 0 24 24">
    <path d="M13 3h4v4h-4v3h3l-1 4h-2v7h-4v-7H7v-4h2V7a4 4 0 0 1 4-4z"/>
  </symbol>

  <symbol id="icon-linkedin" viewBox="0 0 24 24">
    <path d="M4 3a2 2 0 1 0 0 4a2 2 0 0 0 0-4z"/>
    <path d="M2 8h4v14H2z"/>
    <path d="M8 8h4v2h.06a4.4 4.4 0 0 1 3.94-2.16c4.22 0 5 2.78 5 6.4V22h-4v-6.6c0-1.58-.03-3.6-2.2-3.6c-2.2 0-2.54 1.72-2.54 3.5V22H8z"/>
  </symbol>

  <!-- =====================
       ADVANTAGES ICONS (GOIT)
  ====================== -->

  <symbol id="icon-antenna" viewBox="0 0 64 64">
    <path d="M32 6a26 26 0 1 0 26 26A26.03 26.03 0 0 0 32 6zm0 48a22 22 0 1 1 22-22a22.03 22.03 0 0 1-22 22z"/>
    <path d="M32 18a14 14 0 0 0-9.9 23.9l2.8-2.8A10 10 0 1 1 42 32h4a14.02 14.02 0 0 0-14-14z"/>
    <circle cx="32" cy="32" r="4"/>
  </symbol>

  <symbol id="icon-clock" viewBox="0 0 64 64">
    <circle cx="32" cy="32" r="26"/>
    <path d="M32 18v16l10 6"/>
  </symbol>

  <symbol id="icon-diagram" viewBox="0 0 64 64">
    <rect x="12" y="28" width="8" height="24"/>
    <rect x="28" y="20" width="8" height="32"/>
    <rect x="44" y="12" width="8" height="40"/>
  </symbol>

  <symbol id="icon-astronaut" viewBox="0 0 64 64">
    <circle cx="32" cy="20" r="12"/>
    <path d="M18 60h28l-4-20H22z"/>
    <circle cx="28" cy="18" r="2"/>
    <circle cx="36" cy="18" r="2"/>
  </symbol>

</svg>
